# xmcd
#
# Track frame offsets:
#	150
#	13142
#	27600
#	38842
#	52555
#	65112
#	79627
#	95187
#	105607
#	118510
#	131605
#	142862
#	152967
#	164390
#	176237
#	186547
#
# Disc length: 2646 seconds
#
# Revision: 4
# Processed by: cddbd v1.5.2PL0 Copyright (c) Steve Scherf et al.
# Submitted via: audiograbber 1.83.01
#
DISCID=e00a5410
DTITLE=MH1076 Monster Hits - Female Country Classics (MH)
DYEAR=2008
DGENRE=Karaoke
TTITLE0=Dottie West - Would You Hold It Against Me (MH)
TTITLE1=Tanya Tucker - Blood Red And Goin' Down (MH)
TTITLE2=Patsy Cline - Leavin' On Your Mind (MH)
TTITLE3=Tammy Wynette - D.I.V.O.R.C.E (MH)
TTITLE4=Kitty Wells - Heartbreak U.S.A. (MH)
TTITLE5=Dolly Parton - Coat Of Many Colors (MH)
TTITLE6=Donna Fargo - You Were Always There (MH)
TTITLE7=Barbara Mandrell - Tonight My Baby's Coming Home (MH)
TTITLE8=Skeeter Davis - I'm Falling Too (MH)
TTITLE9=Tammy Wynette - Take Me To Your World (MH)
TTITLE10=Connie Smith - Then And Only Then (MH)
TTITLE11=Loretta Lynn - Fist City (MH)
TTITLE12=Barbara Fairchild - Kid Stuff (MH)
TTITLE13=Crystal Gayle - Wrong Road Again (MH)
TTITLE14=Lynn Anderson - What A Man, My Man Is (MH)
TTITLE15=Emylou Harris - If I Could Only Win Your Love (MH)
EXTD=
EXTT0=
EXTT1=
EXTT2=
EXTT3=
EXTT4=
EXTT5=
EXTT6=
EXTT7=
EXTT8=
EXTT9=
EXTT10=
EXTT11=
EXTT12=
EXTT13=
EXTT14=
EXTT15=
PLAYORDER=
